PathFileType	4	(X/Y/Z)	E:\Qualisys_Data\Carbon_Farble_Plate\Data\Amateur_Runner\S14\T1\S14T1V24_c3d.trc
DataRate	CameraRate	NumFrames	NumMarkers	Units	OrigDataRate	OrigDataStartFrame	OrigNumFrames
200.000000	200.000000	4	39	mm	200.000000	39	314
Frame#	Time	LSHO			RSHO			LICST			RICST			LASIS			LHEEL			RASIS			LTROC			RTROC			SACR			LTH1			LSK4			LTH2			LTH3			RHM5			LSK2			LTH4			RTH1			LTOE			RTH2			RTH3			RTH4			LLEP			RLEP			LSK1			LSK3			RSK1			LHM5			RSK2			LFT1			RSK3			RSK4			LLME			RLME			RTOE			RHEEL			RFT1			RFT2			LFT2			
		X1	Y1	Z1	X2	Y2	Z2	X3	Y3	Z3	X4	Y4	Z4	X5	Y5	Z5	X6	Y6	Z6	X7	Y7	Z7	X8	Y8	Z8	X9	Y9	Z9	X10	Y10	Z10	X11	Y11	Z11	X12	Y12	Z12	X13	Y13	Z13	X14	Y14	Z14	X15	Y15	Z15	X16	Y16	Z16	X17	Y17	Z17	X18	Y18	Z18	X19	Y19	Z19	X20	Y20	Z20	X21	Y21	Z21	X22	Y22	Z22	X23	Y23	Z23	X24	Y24	Z24	X25	Y25	Z25	X26	Y26	Z26	X27	Y27	Z27	X28	Y28	Z28	X29	Y29	Z29	X30	Y30	Z30	X31	Y31	Z31	X32	Y32	Z32	X33	Y33	Z33	X34	Y34	Z34	X35	Y35	Z35	X36	Y36	Z36	X37	Y37	Z37	X38	Y38	Z38	X39	Y39	Z39	

40	0.195	-1950.5341796875	1390.8701171875	-478.5776672363281	-1952.998779296875	1373.259887695312	-172.8994293212891	-2008.701538085938	943.31884765625	-485.3910522460938	-1996.128784179688	947.6226196289062	-203.6920928955078	-1968.227905273438	892.02978515625	-457.7408142089844	-2346.6630859375	561.99267578125	-363.9530334472656	-1964.108032226562	915.1275634765624	-222.4527893066406	-2111.0390625	814.2960205078125	-493.6605834960938	-2105.85302734375	853.2976684570312	-179.4197845458984	-2140.080322265625	949.8034057617188	-351.5264892578125	-1988.266723632812	607.5586547851562	-523.0465698242188	-2174.280517578125	518.0333862304688	-462.7803344726562	-2059.28955078125	590.78173828125	-495.2316589355469	-1958.591186523438	510.7984313964844	-511.3118286132812	-1939.707763671875	75.43822479248047	-203.1061248779297	-2080.704833984375	507.3661193847656	-495.3236999511719	-2035.511596679688	498.9786987304688	-486.458984375	-1898.326171875	654.5618286132812	-171.7212677001953	-2444.828369140625	327.6803894042969	-412.4967651367188	-1972.172485351562	632.06787109375	-170.1001281738281	-1863.207397460938	564.04541015625	-203.1980133056641	-1941.64892578125	536.50634765625	-191.3491821289062	-1990.645141601562	446.4765930175781	-509.115478515625	-1896.32470703125	476.0771179199219	-201.3965301513672	-2090.917236328125	424.6507873535156	-494.0610656738281	-2189.24072265625	439.5437316894531	-466.8992919921875	-1901.702880859375	350.4692687988281	-204.8278350830078	-2440.939697265625	403.6846923828125	-463.4933166503906	-1981.481567382812	377.6780700683594	-192.6358032226562	-2371.220703125	555.4273681640625	-334.3500366210938	-1942.962036132812	257.7531127929688	-222.2940826416016	-2014.536010742188	289.0368347167969	-210.9010772705078	-2342.278076171875	510.2826843261719	-430.4636535644531	-2058.88134765625	127.5914916992188	-235.4284362792969	-1867.463134765625	69.42728424072266	-266.4846801757812	-2120.2626953125	107.2284545898438	-285.66796875	-2114.661376953125	72.65460968017578	-311.3111877441406	-2125.482666015625	88.5385513305664	-255.5486907958984	-2371.7158203125	574.6504516601562	-386.4739074707031
41	0.2	-1933.1630859375	1390.08154296875	-478.8215637207031	-1930.8017578125	1372.881958007812	-173.54052734375	-1991.12109375	942.9122314453124	-486.3123168945312	-1976.058715820312	945.4773559570312	-203.8115692138672	-1950.755859375	891.49560546875	-458.7534484863281	-2318.446533203125	560.0858154296875	-365.586181640625	-1947.793823242188	912.61572265625	-222.2075500488281	-2093.04931640625	813.2976684570312	-491.4668579101562	-2086.239501953125	853.7427368164062	-179.4789581298828	-2121.478271484375	950.3397827148438	-350.1113586425781	-1961.521484375	608.6548461914062	-522.8411865234375	-2142.48974609375	517.5020141601562	-462.6208801269531	-2033.021240234375	590.4874267578125	-494.8493957519531	-1929.311767578125	513.6422119140625	-511.1332702636719	-1939.433959960938	75.38810729980469	-203.0445404052734	-2048.691650390625	507.8843383789062	-494.7359008789062	-2005.596313476562	500.0812072753906	-485.97607421875	-1884.699340820312	649.338623046875	-171.8003387451172	-2410.5986328125	322.0007629394531	-412.4422302246094	-1959.260620117188	629.26416015625	-170.8895721435547	-1852.736206054688	557.6726684570312	-202.8617095947266	-1932.459838867188	532.639404296875	-192.5324554443359	-1958.729370117188	447.6220397949219	-509.0014343261719	-1888.413940429688	471.2624816894531	-202.3340301513672	-2058.556640625	424.4805908203125	-493.6210632324219	-2156.461181640625	438.6121215820312	-466.7352905273438	-1895.241455078125	346.7926940917969	-205.8093414306641	-2405.423583984375	397.5228271484375	-464.7348022460938	-1974.366943359375	375.3249206542969	-192.0802154541016	-2343.6572265625	552.581787109375	-335.8143310546875	-1938.266967773438	254.4144744873047	-222.7191162109375	-2009.727661132812	287.6080932617188	-209.9679260253906	-2310.80322265625	507.9528503417969	-431.4030151367188	-2057.9443359375	128.0392761230469	-235.1051330566406	-1867.580444335938	68.9039306640625	-266.5586547851562	-2120.099853515625	108.526969909668	-286.4714050292969	-2114.970703125	73.75957489013672	-311.7244567871094	-2125.19482421875	88.95545959472656	-255.8611145019531	-2341.900634765625	571.4859619140625	-387.817138671875
42	0.205	-1916.250610351562	1390.054565429688	-479.8758850097656	-1908.458618164062	1372.69873046875	-174.1944122314453	-1971.531982421875	941.5073852539062	-484.8033142089844	-1955.51611328125	945.38232421875	-204.0743560791016	-1931.90380859375	891.2291870117188	-458.7975769042969	-2288.394775390625	557.9036865234375	-366.2602233886719	-1927.017700195312	911.4251098632812	-223.2174987792969	-2074.531494140625	812.1588745117188	-489.6686096191406	-2066.64208984375	853.8031616210938	-178.0094909667969	-2102.341552734375	950.3887329101562	-349.0115356445312	-1935.984130859375	611.3198852539062	-522.6324462890625	-2112.15478515625	517.8853759765625	-462.9013977050781	-2005.6767578125	590.0426635742188	-493.5537719726562	-1899.332275390625	516.9966430664062	-511.1390075683594	-1939.630859375	75.31143188476562	-203.0464477539062	-2017.393798828125	508.7284851074219	-493.5408020019531	-1975.873413085938	502.0645446777344	-485.465576171875	-1871.18408203125	643.8626708984375	-172.4686889648438	-2373.302734375	316.9064331054688	-413.5068969726562	-1947.41650390625	626.14697265625	-171.5204772949219	-1842.354125976562	551.5404052734375	-203.2811889648438	-1923.726806640625	529.0301513671875	-192.9272308349609	-1927.816528320312	449.9407653808594	-508.3446044921875	-1881.101684570312	466.7660522460938	-201.9789581298828	-2026.23388671875	426.0099487304688	-493.6104125976562	-2124.20654296875	438.3033752441406	-466.7695007324219	-1887.99609375	342.6459350585938	-206.1195983886719	-2371.893310546875	392.0184020996094	-465.6584167480469	-1966.81982421875	374.0191040039062	-191.7447509765625	-2314.15283203125	548.6695556640625	-337.5793151855469	-1934.266845703125	252.2929534912109	-223.1809844970703	-2005.58056640625	286.534912109375	-209.5741729736328	-2280.22802734375	504.0950927734375	-432.7437438964844	-2057.296142578125	128.8447570800781	-235.6382751464844	-1867.60693359375	68.01395416259766	-266.80615234375	-2120.0126953125	109.1716232299805	-286.6632690429688	-2114.7412109375	74.26264953613281	-311.8253479003906	-2124.942626953125	89.91778564453125	-255.9882354736328	-2312.740478515625	567.8863525390625	-388.8845825195312
43	0.21	-1899.556518554688	1390.5888671875	-480.2338562011719	-1886.427368164062	1372.951538085938	-175.1477813720703	-1954.840087890625	942.3848266601562	-486.1435546875	-1933.17041015625	946.330810546875	-204.9102630615234	-1914.582641601562	892.0714111328125	-459.5321655273438	-2259.734130859375	553.9913940429688	-367.6040954589844	-1908.31103515625	911.111328125	-224.8871307373047	-2056.864013671875	811.8440551757812	-488.6043701171875	-2047.841186523438	854.6761474609375	-177.2952575683594	-2085.166015625	951.6552734375	-348.7878723144531	-1909.439453125	613.5740966796875	-522.3790893554688	-2081.139892578125	517.3818359375	-462.3320007324219	-1979.024658203125	590.8250732421875	-492.8850402832031	-1870.729370117188	521.6632690429688	-511.0325622558594	-1940.111206054688	74.96216583251953	-203.2436065673828	-1986.457885742188	510.0171508789062	-492.733154296875	-1946.2841796875	504.7662048339844	-484.8590698242188	-1858.048706054688	639.7276611328125	-172.5331115722656	-2338.180908203125	310.5360717773438	-413.6509094238281	-1933.753662109375	624.7941284179688	-172.0258331298828	-1831.983276367188	546.4994506835938	-204.3741302490234	-1912.868530273438	526.4130859375	-193.0123291015625	-1896.202514648438	453.8624572753906	-507.8867492675781	-1873.2802734375	463.4915161132812	-201.2514190673828	-1993.717041015625	427.4016723632812	-492.9016723632812	-2092.539794921875	437.6749572753906	-466.9451293945312	-1883.493041992188	340.0018920898438	-206.8045501708984	-2337.6025390625	385.6447448730469	-466.2793273925781	-1959.4794921875	372.6141967773438	-191.6109313964844	-2284.952880859375	545.3976440429688	-338.5042419433594	-1930.17041015625	250.8455963134766	-223.9787445068359	-2000.22998046875	286.4386291503906	-209.426025390625	-2249.333251953125	500.7323608398438	-433.5673522949219	-2055.655517578125	129.0367889404297	-235.1356201171875	-1867.546630859375	67.11820220947266	-266.6305236816406	-2119.7216796875	110.4009780883789	-286.5330505371094	-2114.096435546875	75.62440490722656	-311.9184265136719	-2124.57470703125	90.92949676513672	-256.4805908203125	-2284.51220703125	563.455078125	-390.6469421386719
